<svg viewBox="0 0 150 150" fill="none" xmlns="http://www.w3.org/2000/svg">
<path d="M71.6623 33.9673C64.0002 33.9673 57.7661 41.3348 57.7661 50.3904C57.7661 59.4459 63.9999 66.8138 71.6623 66.8138C79.3246 66.8138 85.5582 59.4463 85.5582 50.3904C85.5579 41.3342 79.3243 33.9673 71.6623 33.9673ZM71.6623 60.7613C66.8239 60.7613 62.8869 56.1087 62.8869 50.39C62.8869 44.6713 66.8236 40.0191 71.6623 40.0191C76.5007 40.0191 80.4373 44.6717 80.4373 50.39C80.437 56.1087 76.5004 60.7613 71.6623 60.7613Z" fill="currentColor"/>
<path d="M132.444 28.9639C127.422 28.9639 123.336 33.7927 123.336 39.7278C123.336 45.6629 127.422 50.4918 132.444 50.4918C137.466 50.4918 141.551 45.6629 141.551 39.7278C141.551 33.7927 137.465 28.9639 132.444 28.9639ZM132.444 44.4396C130.246 44.4396 128.457 42.3257 128.457 39.7278C128.457 37.1299 130.245 35.016 132.444 35.016C134.642 35.016 136.431 37.1299 136.431 39.7278C136.43 42.3261 134.642 44.4396 132.444 44.4396Z" fill="currentColor"/>
<path d="M139.687 0.00173031L102.453 0C96.7661 0 92.1395 5.46975 92.1395 12.1929V26.0853H76.7867C76.7832 26.0853 76.7802 26.0849 76.7767 26.0849H20.8718C20.8654 26.0849 20.8589 26.0853 20.8519 26.0853H10.9424C4.90872 26.0853 0 31.8871 0 39.0178V116.722C0 123.853 4.90872 129.654 10.9424 129.654H50.1469L46.6901 146.249C46.6872 146.264 46.686 146.278 46.6834 146.292C46.6693 146.365 46.6582 146.439 46.6485 146.514C46.6438 146.55 46.6383 146.585 46.6344 146.622C46.6274 146.693 46.6242 146.766 46.6216 146.84C46.6201 146.878 46.6172 146.915 46.6169 146.953C46.6169 146.96 46.616 146.967 46.616 146.974C46.616 147.064 46.6207 147.153 46.6271 147.242C46.628 147.253 46.6274 147.265 46.6286 147.276C46.6377 147.387 46.6529 147.496 46.672 147.604C46.6743 147.617 46.6781 147.631 46.6807 147.645C46.6986 147.737 46.7194 147.828 46.744 147.917C46.7511 147.943 46.7598 147.968 46.7675 147.993C46.7906 148.069 46.8155 148.144 46.8436 148.218C46.8554 148.248 46.868 148.278 46.8805 148.308C46.9087 148.375 46.9383 148.44 46.9699 148.505C46.9857 148.536 47.0012 148.567 47.0179 148.598C47.0513 148.66 47.0874 148.72 47.1246 148.779C47.1372 148.799 47.1477 148.821 47.1612 148.841C47.1671 148.849 47.1738 148.857 47.1797 148.865C47.2248 148.932 47.2725 148.995 47.322 149.056C47.3352 149.073 47.3472 149.091 47.361 149.107C47.4246 149.182 47.4911 149.253 47.5611 149.32C47.5796 149.338 47.5989 149.354 47.6177 149.371C47.671 149.419 47.7252 149.466 47.7814 149.51C47.8057 149.528 47.8309 149.545 47.8558 149.563C47.9095 149.601 47.9639 149.638 48.0205 149.671C48.0466 149.687 48.0726 149.702 48.099 149.716C48.1567 149.748 48.215 149.777 48.2751 149.803C48.3015 149.815 48.3275 149.827 48.3539 149.838C48.416 149.863 48.4793 149.884 48.5432 149.903C48.5692 149.911 48.5944 149.92 48.6202 149.927C48.6879 149.944 48.7564 149.958 48.8262 149.968C48.8493 149.972 48.8722 149.978 48.8959 149.981C48.9882 149.993 49.0816 150 49.1763 150H80.0433H100.308C101.723 150 102.869 148.645 102.869 146.974C102.869 145.303 101.723 143.948 100.308 143.948H83.31L86.2868 129.655L131.067 129.654C136.466 129.654 140.858 124.465 140.858 118.086V91.9092C145.995 91.2188 150 86.0531 150 79.8001V12.1919C150.001 5.46975 145.374 0.00173031 139.687 0.00173031ZM105.452 12.1919C105.452 8.80762 107.782 6.05422 110.646 6.05422H139.687C142.55 6.05388 144.88 8.80728 144.88 12.1919V15.7593H105.452V12.1919ZM105.452 21.8108H144.88V69.7989H143.655L130.771 53.0417C130.285 52.4108 129.597 52.0507 128.876 52.0507C128.155 52.0507 127.466 52.4105 126.981 53.0417L123.323 57.7985L114.239 45.9889C113.754 45.3584 113.066 44.9983 112.345 44.9983C111.624 44.9983 110.935 45.358 110.45 45.9892L105.452 52.4877L105.452 21.8108ZM136.736 69.7989H132.554L126.784 62.2977L128.876 59.5765L136.736 69.7989ZM105.453 61.2441L105.554 61.3532L112.345 52.5234L125.634 69.7989H105.453V61.2441ZM97.2603 12.1933C97.2603 9.10782 99.1966 6.55352 101.706 6.12347C100.834 7.91221 100.331 9.98315 100.331 12.1922V79.7994C100.331 82.0068 100.833 84.0774 101.705 85.8651C99.1957 85.434 97.26 82.8821 97.26 79.7994V12.1933H97.2603ZM16.2016 94.1938L36.7991 69.1736L64.1822 104.77H16.2016V94.1938ZM59.3333 89.4654L65.4853 81.4645L83.4043 104.769H71.1022V104.769L59.3333 89.4654ZM12.2681 123.602H10.9424C7.73237 123.602 5.12083 120.516 5.12083 116.722V39.0178C5.12083 35.2239 7.73237 32.1374 10.9424 32.1374H12.2681C11.5114 33.7787 11.0807 35.6595 11.0807 37.656V118.085C11.0807 120.081 11.5111 121.961 12.2681 123.602ZM78.0368 143.947H52.4435L55.4203 129.654H81.0136L78.0368 143.947ZM135.738 118.085C135.738 121.126 133.643 123.601 131.068 123.601H20.8718C18.2966 123.601 16.2016 121.127 16.2016 118.085V110.822H135.738V118.085ZM135.738 104.77H90.3237L67.3806 74.9304C66.8951 74.2995 66.2072 73.9394 65.4856 73.9394C64.7643 73.9394 64.0761 74.2992 63.591 74.9304L55.873 84.9672L38.7568 62.7222C38.2816 62.1049 37.6118 61.7465 36.9058 61.7327C36.1927 61.7299 35.5197 62.0498 35.0275 62.6481L16.2019 85.5157V37.6563C16.2019 34.6169 18.2916 32.144 20.8621 32.1378H92.1398V79.7994C92.1398 86.5202 96.7664 91.9882 102.453 91.9882L135.738 91.9892V104.77H135.738ZM144.88 79.7991C144.88 83.1837 142.55 85.9371 139.687 85.9371L110.626 85.936C107.771 85.9232 105.452 83.1757 105.452 79.7991V75.8511H144.88V79.7991H144.88Z" fill="currentColor"/>
</svg>
