<svg viewBox="0 0 200 200" fill="none" xmlns="http://www.w3.org/2000/svg">
<path d="M191.342 0.356687C189.119 0.890076 186.719 1.86796 184.052 3.20143C178.719 5.86838 172.185 10.0022 165.34 14.8027C153.472 23.1146 140.672 33.3602 132.004 41.4499L149.694 50.2953L158.539 67.9861C166.629 59.3185 176.852 46.5171 185.163 34.6492C189.964 27.8263 194.097 21.2922 196.809 15.9139C198.142 13.2469 199.12 10.8911 199.609 8.66868C200.142 6.44622 200.453 3.82372 198.32 1.69016C196.186 -0.336721 193.875 -0.198928 191.342 0.356687ZM184.763 15.2027C186.941 17.2963 187.252 20.581 186.452 23.5147C185.652 26.4483 183.741 29.4264 180.719 32.4712L161.962 51.2287L148.805 38.0273L167.562 19.292C170.585 16.2695 173.563 14.3759 176.496 13.5581C179.207 12.798 182.852 13.3625 184.763 15.2027ZM67.6445 34.8714L58.1772 44.2947L78.4452 46.5171V34.8714H67.6445ZM125.382 46.0726L106.047 55.7625L38.0425 144.705L44.1318 150.839L87.4681 107.501L92.4906 112.524C78.0452 126.97 63.5998 141.46 49.1544 155.906L55.2881 161.952L144.227 93.9443L153.917 74.609L144.405 55.5847L125.382 46.0726ZM11.3341 46.2504L14.6232 56.1181L68.4001 93.2332L97.0687 55.7625L11.3341 46.2504ZM28.2686 74.1645L22.4459 80.0318L33.2867 90.8329L41.1094 83.0543L28.2686 74.1645ZM144.227 102.923L106.758 131.593L143.872 185.376L153.739 188.621L144.227 102.923ZM59.3773 105.057L10.0451 109.102L0 119.147L36.6202 134.882L59.3773 105.057ZM153.65 123.37L155.695 141.816L163.295 134.171V123.37H153.65ZM94.9352 140.616L65.1555 163.374L80.8454 200L90.8905 189.954L94.9352 140.616ZM33.2867 150.039L27.4685 155.862L44.1318 172.486L49.9544 166.708L33.2867 150.039ZM116.937 158.885L109.158 166.708L119.959 177.509L125.826 171.686L116.937 158.885Z" fill="currentColor"/>
</svg>
