<svg viewBox="0 0 100 100" fill="none" xmlns="http://www.w3.org/2000/svg">
<path d="M49.1102 52.9367C74.9444 53.0841 78.3366 52.7379 82.0134 54.7691C85.6902 56.8002 85.0939 61.5282 85.0939 62.5222C86.2864 63.218 88.4726 65.1066 88.4726 68.3868C88.4726 71.6669 85.7896 75.1459 81.7153 75.1459C77.6409 75.1459 74.9579 71.6669 74.9579 68.3868C74.9579 65.1066 77.1441 63.218 78.3366 62.5222C78.3366 61.5282 78.3366 60.1366 75.8522 60.1366C73.3679 60.1366 49.1102 59.7897 49.1102 59.7897C27.8969 59.6669 26.9781 59.6423 24.3568 59.1265C19.6548 58.2177 14.7095 56.0562 11.1424 53.3543C2.95438 47.1645 -0.882919 38.4447 0.17099 28.4723C0.846565 22.2334 3.65699 16.7068 8.54821 12.0399C9.98045 10.6889 13.007 8.40458 14.142 7.83964C16.0877 6.85713 19.7899 5.21143 20.5466 5.01493C25.5459 3.63942 24.0325 3.73767 43.0569 3.5903C43.0569 3.5903 59.6543 3.37959 61.7412 3.37959C62.8343 1.5904 64.8218 7.62939e-06 67.574 7.62939e-06C70.8835 7.62939e-06 74.3229 2.48499 74.3229 6.88169C74.3229 10.5363 71.281 13.5183 67.574 13.5183C64.9211 13.5183 62.8343 11.9279 61.7412 10.1387C60.2506 10.1387 45.2458 10.1976 45.2458 10.1976C36.3011 10.1976 29.1129 10.2959 27.7888 10.4433C23.6813 10.9345 20.0601 12.2855 16.7092 14.6189C10.1696 19.1139 6.92681 25.3774 7.30514 32.6725C7.52132 36.9218 8.62927 39.9922 11.1965 43.5538C12.4125 45.2731 15.5743 48.1961 17.1686 49.1049C19.4656 50.4067 22.8861 52.2841 25.1518 52.4829C34.7821 53.3279 49.1102 52.9367 49.1102 52.9367Z" fill="currentColor"/>
<path d="M24.0484 19.4823C24.0484 15.4069 27.5265 12.7231 30.8058 12.7231C34.0851 12.7231 35.9732 14.9099 36.6688 16.1027C38.855 16.1027 60.6755 16.1931 60.6755 16.1931C60.6755 16.1931 83.4737 16.1027 84.7656 16.1027C85.3618 15.0093 87.3493 12.7231 90.6286 12.7231C93.908 12.7231 97.386 15.4069 97.386 19.4823C97.386 23.5577 93.908 26.2415 90.6286 26.2414C87.3493 26.2414 85.4612 24.0547 84.7656 22.8619C83.4737 22.8619 60.6214 22.825 60.6214 22.825C60.6214 22.825 38.855 22.8619 36.6688 22.8619C35.9732 24.0547 34.0851 26.2414 30.8058 26.2414C27.5265 26.2414 24.0484 23.5577 24.0484 19.4823Z" fill="currentColor"/>
<path d="M50.8898 47.0591C25.0556 46.9117 21.6634 47.2579 17.9866 45.2267C14.3098 43.1955 14.906 38.4676 14.906 37.4736C13.7136 36.7778 11.5273 34.8892 11.5273 31.609C11.5273 28.3288 14.2104 24.8498 18.2847 24.8498C22.3591 24.8498 25.0421 28.3288 25.0421 31.609C25.0421 34.8892 22.8559 36.7778 21.6634 37.4736C21.6634 38.4676 21.6634 39.8591 24.1478 39.8591C26.6321 39.8591 50.8898 40.2061 50.8898 40.2061C72.1031 40.3289 73.0219 40.3535 75.6432 40.8693C80.3452 41.7781 85.2905 43.9396 88.8576 46.6415C97.0456 52.8313 100.883 61.551 99.829 71.5235C99.1534 77.7624 96.343 83.289 91.4518 87.9559C90.0195 89.3069 86.9929 91.5912 85.858 92.1561C83.9123 93.1386 80.2101 94.7843 79.4534 94.9808C74.4541 96.3563 75.9674 96.2581 56.943 96.4055C56.943 96.4055 40.3457 96.6162 38.2588 96.6162C37.1657 98.4054 35.1782 99.9958 32.426 99.9958C29.1164 99.9958 25.6771 97.5108 25.6771 93.1141C25.6771 89.4594 28.719 86.4775 32.426 86.4775C35.0789 86.4775 37.1657 88.0678 38.2588 89.857C39.7494 89.857 54.7542 89.7981 54.7542 89.7981C63.6989 89.7981 70.8871 89.6999 72.2112 89.5525C76.3187 89.0612 79.9399 87.7103 83.2908 85.3768C89.8304 80.8819 93.0732 74.6184 92.6949 67.3233C92.4787 63.0739 91.3707 60.0036 88.8035 56.442C87.5875 54.7226 84.4257 51.7997 82.8314 50.8909C80.5344 49.589 77.1138 47.7117 74.8482 47.5129C65.2179 46.6679 50.8898 47.0591 50.8898 47.0591Z" fill="currentColor"/>
<path d="M3.17996 80.3147C3.17996 76.2393 6.65803 73.5555 9.93736 73.5555C13.2167 73.5555 15.1048 75.7423 15.8004 76.9351C17.9866 76.9351 39.807 77.0255 39.807 77.0255C39.807 77.0255 62.6053 76.9351 63.8972 76.9351C64.4934 75.8417 66.4809 73.5555 69.7602 73.5555C73.0395 73.5555 76.5176 76.2393 76.5176 80.3147C76.5176 84.3901 73.0395 87.0739 69.7602 87.0738C66.4809 87.0738 64.5928 84.8871 63.8972 83.6943C62.6053 83.6943 39.753 83.6574 39.753 83.6574C39.753 83.6574 17.9866 83.6943 15.8004 83.6943C15.1048 84.8871 13.2167 87.0738 9.93736 87.0738C6.65803 87.0738 3.17996 84.3901 3.17996 80.3147Z" fill="currentColor"/>
</svg>
