<svg viewBox="0 0 200 200" fill="none" xmlns="http://www.w3.org/2000/svg">
<path d="M100 0C44.9999 0 0 44.6667 0 100C0 155.333 44.9999 200 100 200C155 200 200 155 200 100C200 44.9999 155 0 100 0ZM100 193.334C48.6666 193.334 6.66672 151.334 6.66672 100C6.66672 48.667 48.6666 6.66672 100 6.66672C151.333 6.66672 193.334 48.6666 193.334 100C193.334 151.333 151.333 193.334 100 193.334Z" fill="currentColor"/>
<path d="M100 33.3333C63.3332 33.3333 33.3332 63.3333 33.3332 100C33.3332 103.667 33.6664 107.334 34.3332 110.667C34.3332 112.334 36.3332 113.667 37.9999 113.334C39.6667 113.334 40.9999 111.334 40.6667 109.667C40.3335 106.667 39.9999 103.333 39.9999 100C39.9999 67 67 40 100 40C133 40 160 67 160 100C160 133 133 160 100 160C85.0891 160 71.048 154.787 60.0322 144.634L78.7814 125.885C84.7456 130.776 92.1168 133.333 100 133.333C118.333 133.333 133.333 118.333 133.333 100C133.333 81.6667 118.333 66.6669 100 66.6669C81.667 66.6669 66.6668 81.6671 66.6668 100C66.6668 102 66.6668 103.667 67.3336 105.334C67.3336 107 69.3336 108.334 71.0003 108C72.6671 108 74.0003 106 73.6671 104.334C73.3339 103 73.3339 101.334 73.3339 100C73.3339 85.3334 85.3338 73.3332 100.001 73.3332C114.668 73.3332 126.668 85.333 126.668 100C126.668 114.667 114.668 126.667 100.001 126.667C93.8222 126.667 88.1213 124.767 83.4875 121.181L93.209 111.459C95.2014 112.648 97.5247 113.334 100.001 113.334C107.334 113.334 113.334 107.334 113.334 100C113.334 92.6669 107.334 86.667 100.001 86.667C92.6673 86.667 86.6673 92.6669 86.6673 100C86.6673 102.477 87.3536 104.8 88.5422 106.792L76.3343 119L53.0013 142.333L41.0015 154.333C39.6683 155.666 39.6683 157.666 41.0015 159C41.6683 159.667 42.3347 160 43.3347 160C44.3346 160 45.0014 159.667 45.6678 159L55.3635 149.304C67.4587 160.512 83.437 166.666 100.001 166.666C136.668 166.666 166.668 137 166.668 99.9997C166.667 63.3333 136.667 33.3333 100 33.3333ZM100 93.3333C103.667 93.3333 106.667 96.3333 106.667 100C106.667 103.667 103.667 106.667 100 106.667C98.34 106.667 96.8205 106.048 95.6506 105.035C95.5541 104.908 95.4508 104.784 95.3336 104.667C95.2165 104.55 95.0926 104.446 94.9659 104.35C93.9528 103.18 93.3337 101.66 93.3337 100C93.3333 96.3333 96.3332 93.3333 100 93.3333Z" fill="currentColor"/>
<path d="M36.6668 63.3332C36.6668 59.6665 33.6668 56.6665 30 56.6665C26.3333 56.6665 23.3333 59.6665 23.3333 63.3332C23.3333 67 26.3333 69.9999 30 69.9999C33.6668 69.9999 36.6668 67 36.6668 63.3332Z" fill="currentColor"/>
<path d="M126.667 130C126.667 133.667 129.667 136.667 133.334 136.667C137 136.667 140 133.667 140 130C140 126.333 137 123.333 133.334 123.333C129.667 123.333 126.667 126.334 126.667 130Z" fill="currentColor"/>
<path d="M143.333 43.3334C147 43.3334 150 40.3335 150 36.6667C150 33 147 30 143.333 30C139.667 30 136.667 33 136.667 36.6667C136.667 40.3335 139.667 43.3334 143.333 43.3334Z" fill="currentColor"/>
</svg>
