<svg viewBox="0 0 200 200" fill="none" xmlns="http://www.w3.org/2000/svg">
<path d="M196.305 124.928H182.084V119.975C182.084 118.327 180.429 116.992 178.388 116.992H72.3941V113.583H81.4566C85.1248 113.583 88.1092 111.174 88.1092 108.213V99.1803H105.336C107.242 99.1803 108.836 98.0096 109.015 96.4771L110.391 84.7021C110.391 84.6998 110.391 84.6978 110.392 84.6955L114.646 48.2782C114.647 48.2759 114.647 48.2739 114.647 48.2716L114.65 48.2505C114.654 48.2153 114.653 48.181 114.655 48.1462C114.659 48.0876 114.666 48.0298 114.666 47.9704V34.3876C114.666 32.7399 113.011 31.4044 110.97 31.4044H69.9604V24.0645C69.9604 21.9164 68.3862 20.0641 66.1234 19.2063V5.36993C66.1234 2.40899 63.139 0 59.4708 0H55.2515C51.5833 0 48.5989 2.40899 48.5989 5.36993V19.1848C46.3061 20.0332 44.7067 21.8989 44.7067 24.0645V31.4044H3.69576C1.65455 31.4044 0 32.7399 0 34.3876V47.97C0 48.0294 0.00677652 48.0872 0.0106479 48.1458C0.0130676 48.1806 0.0120986 48.2153 0.0159701 48.2501L0.0183902 48.2712C0.0188741 48.2735 0.0188736 48.2755 0.0193575 48.2778L4.27405 84.6939C4.27453 84.6966 4.27453 84.6998 4.27502 84.7025L5.65034 96.4768C5.82939 98.0092 7.42345 99.1799 9.32964 99.1799H26.6112V108.213C26.6112 111.174 29.5956 113.583 33.2637 113.583H42.2711V197.017C42.2711 198.664 43.9256 200 45.9668 200H68.6988H93.0907H108.321H132.713H147.944H172.224H187.454C189.495 200 191.15 198.664 191.15 197.017V143.188H196.304C198.345 143.188 200 141.852 200 140.205V127.91C200.001 126.264 198.346 124.928 196.305 124.928ZM174.692 122.958V124.928H72.3941V122.958H174.692ZM103.35 81.4115H86.8476V50.9536H106.909L103.35 81.4115ZM55.9894 5.96642H58.7309V18.695H55.9894V5.96642ZM52.0967 24.6614H52.2937H62.4267H62.568V31.4048H52.0967V24.6614ZM7.39151 37.3708H107.274V44.9868H7.39151V37.3708ZM79.4561 50.9532V81.4111H61.0286V50.9532H79.4561ZM53.6366 50.9532V81.4111H34.0027V50.9532H53.6366ZM7.75639 50.9532H26.6112V81.4111H11.3147L7.75639 50.9532ZM33.2632 93.2139H12.6939L12.0121 87.3775H102.653L101.971 93.2139H81.4561H33.2632ZM65.0026 119.975V127.912V140.206V162.464V171.235V194.034H49.6621V113.583H65.0026V119.975ZM68.6979 107.617H45.9659H34.0022V99.1807H34.0027H80.7172V107.617H68.6979ZM89.3945 194.034H72.3941V174.218H89.3945V194.034ZM89.3945 168.251H72.3941V165.447H89.3945V168.251ZM89.3945 159.481H72.3941V143.189H89.3945V159.481ZM104.625 162.464V171.234V194.034H96.786V171.234V162.464V143.189H104.625V162.464ZM129.018 194.034H112.017V174.218H129.018V194.034ZM129.018 168.251H112.017V165.447H129.018V168.251ZM129.018 159.481H112.017V143.189H129.018V159.481ZM144.248 162.464V171.234V194.034H136.409V171.234V162.464V143.189H144.248V162.464ZM168.528 194.034H151.64V174.218H168.528V194.034ZM168.528 168.251H151.64V165.447H168.528V168.251ZM168.528 159.481H151.64V143.189H168.528V159.481ZM183.758 194.034H175.919V171.952C175.99 171.722 176.032 171.482 176.032 171.234V162.464C176.032 162.216 175.99 161.976 175.919 161.745V143.188H183.758V194.034ZM192.611 137.222H192.609H187.455H172.224H147.945H132.714H108.322H93.0917H72.3956V130.894H178.389H192.61L192.611 137.222Z" fill="currentColor"/>
</svg>
