<svg viewBox="0 0 150 150" fill="none" xmlns="http://www.w3.org/2000/svg">
<path d="M17.7208 140.917C15.2109 140.917 12.701 139.879 10.9836 138.062C7.28476 134.429 7.28476 128.331 10.9836 124.697C12.8331 122.881 15.2109 121.843 17.7208 121.843C20.2308 121.843 22.7407 122.881 24.4581 124.697C28.1569 128.331 28.1569 134.429 24.4581 138.062C22.7407 140.009 20.3629 140.917 17.7208 140.917ZM17.7208 129.888C17.3245 129.888 16.9282 130.018 16.664 130.277C16.0035 130.926 16.0035 131.964 16.664 132.613C16.9282 132.872 17.3245 133.002 17.7208 133.002C18.1172 133.002 18.5135 132.872 18.7777 132.613C19.4382 131.964 19.4382 130.926 18.7777 130.277C18.5135 130.018 18.1172 129.888 17.7208 129.888Z" fill="currentColor"/>
<path d="M20.4949 148.832C16.3997 148.832 12.7009 147.275 9.79462 144.42L5.83155 140.528C0.0190411 134.689 0.0190411 125.216 5.83155 119.377L6.09575 119.118L75.978 60.3374C71.7507 53.3305 69.7691 45.1557 70.4296 36.981C71.0902 27.3789 75.1853 18.4256 81.9226 11.6782C89.4524 4.15225 99.4922 0 110.192 0C115.344 0 120.496 1.03806 125.252 2.98443C126.441 3.50346 127.366 4.54152 127.63 5.8391C127.894 7.13668 127.498 8.43426 126.573 9.34256L106.097 29.5848L119.968 43.4689L140.312 23.3564C141.104 22.5779 142.161 22.1886 143.218 22.1886C143.482 22.1886 143.747 22.1886 144.011 22.3183C145.332 22.5779 146.389 23.4862 146.917 24.654C149.955 31.7907 150.748 39.7059 149.295 47.3616C147.842 55.2768 144.011 62.4135 138.33 68.1228C130.8 75.6488 120.893 79.801 110.325 79.801C104.512 79.801 98.6996 78.5035 93.5476 76.0381L31.1952 144.42C28.289 147.275 24.458 148.832 20.4949 148.832ZM11.512 124.957C8.86991 127.811 8.86991 132.223 11.6441 134.948L15.6071 138.841C16.9282 140.138 18.6455 140.917 20.4949 140.917C22.3444 140.917 24.0617 140.138 25.3827 138.841L89.5845 68.3824C90.3771 67.6038 91.4339 67.0848 92.6229 67.0848C93.2834 67.0848 94.076 67.2145 94.6044 67.6038C99.3601 70.3287 104.776 71.7561 110.325 71.7561C118.779 71.7561 126.573 68.5121 132.518 62.5433C140.048 54.8876 143.35 44.1177 141.237 33.6073L122.742 51.9031C121.95 52.6817 120.893 53.0709 119.836 53.0709C118.779 53.0709 117.722 52.6817 116.93 51.9031L97.6427 32.3097C96.0575 30.7526 96.0575 28.2872 97.6427 26.7301L116.137 8.43426C114.156 8.04498 112.174 7.91523 110.192 7.91523C101.738 7.91523 93.6797 11.2889 87.7351 17.2578C76.5064 28.417 75.3174 45.9343 84.6967 58.7803C85.8856 60.4671 85.6214 62.8028 84.0362 64.1004L11.512 124.957Z" fill="currentColor"/>
<path d="M58.012 75.9085C56.9552 75.9085 55.8984 75.5192 55.1058 74.7406L26.7037 46.3237H17.0603C15.6071 46.3237 14.2861 45.5451 13.6256 44.3773L0.547451 23.3566C-0.377266 21.7995 -0.113061 19.7233 1.20796 18.4258L11.7762 7.91538C12.5688 7.13683 13.6256 6.74756 14.6824 6.74756C15.475 6.74756 16.1355 7.00707 16.7961 7.39635L38.3288 20.6316C39.5177 21.4102 40.1782 22.578 40.1782 23.8756L40.3103 33.3479L69.5049 62.8029C70.2975 63.5815 70.6938 64.6195 70.6938 65.6576C70.6938 66.6957 70.2975 67.7337 69.5049 68.3825C68.7123 69.1611 67.7876 69.5503 66.7308 69.5503C65.674 69.5503 64.6171 69.1611 63.8245 68.3825L33.3089 37.7597C32.6483 36.9811 32.1199 36.0728 32.1199 35.0348L31.9878 26.0815L15.0787 15.7008L9.00201 21.7995L19.306 38.4085H28.289C29.3458 38.4085 30.4026 38.7977 31.1952 39.5763L60.7862 69.1611C61.5788 69.9396 61.9751 70.9777 61.9751 72.0157C61.9751 73.0538 61.5788 74.0919 60.7862 74.8704C60.1257 75.5192 59.0688 75.9085 58.012 75.9085ZM117.987 150C115.477 150 112.967 148.962 111.249 147.145L77.0348 112.5C73.3359 108.867 73.3359 102.898 77.0348 99.1351L78.0916 98.097L76.9027 96.9292C75.3174 95.3721 75.3174 92.9067 77.0348 91.3496C77.8274 90.5711 78.7521 90.1818 79.8089 90.1818C80.8657 90.1818 81.9226 90.5711 82.7152 91.3496L86.6783 95.2424C88.2635 96.7995 88.1314 99.2649 86.6783 100.822L82.8473 104.715C82.1868 105.363 82.1868 106.402 82.8473 107.05L117.062 141.696C117.326 141.955 117.722 142.085 118.119 142.085C118.515 142.085 118.911 141.955 119.175 141.696L134.764 125.995C135.424 125.346 135.424 124.308 134.764 123.659L100.417 89.014C100.153 88.7545 99.7564 88.6247 99.3601 88.6247C98.9638 88.6247 98.5675 88.7545 98.3033 89.014L94.076 93.296C93.2834 94.0745 92.2266 94.4638 91.1697 94.4638C90.1129 94.4638 89.0561 94.0745 88.2635 93.296L84.8288 89.533C84.0362 88.7545 83.6399 87.7164 83.6399 86.6784C83.6399 85.6403 84.0362 84.6022 84.8288 83.9534C85.6214 83.1749 86.5462 82.7856 87.603 82.7856C88.6598 82.7856 89.7166 83.1749 90.5092 83.9534L91.3018 84.732L92.6229 83.4344C94.4723 81.6178 96.8501 80.5797 99.3601 80.5797C101.87 80.5797 104.38 81.6178 106.097 83.4344L140.312 118.08C144.011 121.713 144.011 127.812 140.312 131.445L124.724 147.145C123.006 148.962 120.629 150 117.987 150Z" fill="currentColor"/>
</svg>
